#!OML:ASF F:\VICON\USERDATA\INSTALL\rory3\rory3.ASF
:FULLY-SPECIFIED
:DEGREES
77
root 0.4905452873055661 17.61509102619466 43.36307079931413 -2.192938426320735 2.0025954553060985 0.44616983168237523
lfemur 8.871477142646391 -5.9937034485863805 -19.563738716339344
ltibia 2.4547898662966965
lfoot -11.941204534750367 -3.9675795903197573
ltoes -31.541326547947822
rfemur -27.435596692659715 2.58866691018239 19.878424805220817
rtibia 18.56134229264644
rfoot -2.4529308914854315 -12.216859178750667
rtoes -4.758450557264673
lowerback -1.0 -1.6260867270618207 -5.005472091673061
upperback -0.14617128549766834 -2.4587938171754065 1.4185705836552926
thorax -6.110392254659688 -0.7735828517369543 4.766698185910043
lowerneck -16.158905208977803 -3.018590921635173 -2.5217319531667926
upperneck 19.872934085671986 -3.70903824225927 2.777731360242339
head 8.942230179001612 -1.7703381410941854 0.7482110374991053
lclavicle -1.220004780117853e-14 9.146882336420199e-15
lhumerus -22.181430585785208 0.5094878499334103 79.08845398123843
lradius 30.456976663005612
lwrist 9.973331422505119
lhand -29.117647314064204 21.93061465902249
lfingers nan
lthumb -2.2806675112870822 52.55482570327226
rclavicle -1.1473526139187652e-14 9.918623033368686e-15
rhumerus -40.293769207807046 -26.545593953161863 -72.79869639634987
rradius 26.499332887815925
rwrist 9.066248010746527
rhand -18.673872911019274 -1.0
rfingers nan
rthumb 7.96793917647922 -8.86060824535048
78
root 0.437825122094839 17.54197860658966 43.54913144245499 -2.5364518014555335 2.1588154997814955 0.8839177113193895
lfemur 10.573069456639193 -7.065518005551745 -20.231820721192726
ltibia 4.73304863005982
lfoot -12.350047786863385 -3.7394219114608673
ltoes -33.836690909126204
rfemur -28.186217213880166 -1.9464293413159242 21.815175129578915
rtibia 25.773672698102516
rfoot 1.3778247359855103 -8.990069439044293
rtoes -10.016469224062043
lowerback -1.0 -1.697178688463228 -5.287397705648831
upperback 0.06298456332734195 -2.590741385596335 1.250230073813032
thorax -6.180560324509834 -0.8859475940293502 4.834246707523215
lowerneck -16.5258050693593 -2.9821210436918473 -2.5192149855359824
upperneck 19.825531823149213 -3.6539399457714294 2.7082176112554683
head 8.961265180975154 -1.7480080574466657 0.7359619066776952
lclavicle -5.586997608035762e-15 -6.3290063834299315e-15
lhumerus -21.71664981244308 0.9791663173549305 78.92682354072812
lradius 31.52674569600049
lwrist 9.644811341616105
lhand -29.989476110127935 17.519683536816714
lfingers nan
lthumb -3.105392489035187 48.13350455856749
rclavicle -4.9159720545205174e-15 -5.555525034845727e-15
rhumerus -40.28347623251985 -26.11567872327737 -73.28007767455868
rradius 26.86519111117566
rwrist 7.567719259505704
rhand -18.320300611473446 -1.0
rfingers nan
rthumb 8.293370098529877 -5.189114738452918
79
root 0.3521601589084531 17.56355160041199 43.48982425246247 -2.555510155387874 2.3421053141863326 0.23103172639559721
lfemur 9.825876553046324 -8.398282186155638 -19.340287541187596
ltibia 8.440611589713267
lfoot -9.61574816971506 -5.0189721597627255
ltoes -37.24981605528873
rfemur -27.832732544049044 -1.2314985811857349 23.15139151141799
rtibia 29.97403344423043
rfoot 6.039646410610309 -9.132134844155221
rtoes -14.690539969312834
lowerback -1.0 -1.8811751808752146 -4.912507435173754
upperback -0.01039710106963021 -2.7299856451210482 1.6636673865869815
thorax -6.1014050017904635 -1.0054799965196948 4.980505395607907
lowerneck -16.68027616525046 -2.8360780136598653 -2.651764121778615
upperneck 19.942886893289856 -3.253088394130227 2.420450772869043
head 9.014803219940525 -1.6456567255407624 0.6938130445696924
lclavicle 6.800494271289565e-15 -6.073865109780561e-15
lhumerus -22.42937283191145 1.9457060290974226 79.06910389187853
lradius 32.65694954828462
lwrist 9.449766968160773
lhand -30.482215668155316 16.902250759560754
lfingers nan
lthumb -3.5684680430414244 47.54623588925261
rclavicle 7.364560160583963e-15 -5.46387392632627e-15
rhumerus -40.63293507986249 -26.02692950789036 -73.16275583578451
rradius 27.32168183277037
rwrist 7.116294456679155
rhand -18.179481204025908 -1.0
rfingers nan
rthumb 8.44502669254363 -4.806484797476113
80
root 0.2942121039614268 17.610118490943716 43.176641811096815 -2.8439822613268895 1.5882270896690276 -1.7074516488784668
lfemur 7.251547195634246 -8.054994824645743 -17.14187827857102
ltibia 16.543513929506815
lfoot -5.392451292009969 -7.582638059499331
ltoes -41.015639306553226
rfemur -26.749573290573437 -0.7272771359132415 25.889962308454365
rtibia 32.45163173209032
rfoot 6.255771094362612 -7.467019009198917
rtoes -11.461878934782174
lowerback -1.0 -1.8216877979681603 -2.924965021508786
upperback -0.26826220057124 -2.372243033794361 2.2219859452692123
thorax -6.441324601116155 -0.8991903288927243 4.136797623569211
lowerneck -16.4969342298137 -2.670625877217619 -2.4092902865936265
upperneck 20.218616047707645 -3.129300592201904 2.295993702119466
head 9.09983393061531 -1.5838548360128062 0.6371991028201383
lclavicle -7.228580443705028e-15 -1.0902103900259891e-14
lhumerus -23.233029513158055 3.428756522709666 79.30007466039622
lradius 32.2959912966654
lwrist 9.452559670538427
lhand -30.538546617902878 16.396891721572175
lfingers nan
lthumb -3.622946969418675 47.0203329431044
rclavicle -6.6720680721488405e-15 -1.0416159007990928e-14
rhumerus -40.97580553978325 -26.41787094364345 -72.76572035994305
rradius 26.850513971289004
rwrist 7.045521262071182
rhand -18.444128423694302 -1.0
rfingers nan
rthumb 8.203778792354083 -6.05574348166384
